<svg width="20" height="20" viewBox="0 0 20 20" fill="none" xmlns="http://www.w3.org/2000/svg">
<g id="finance_chip">
<mask id="mask0_0_1" style="mask-type:alpha" maskUnits="userSpaceOnUse" x="0" y="0" width="20" height="20">
<rect id="Bounding box" width="20" height="20" fill="#D9D9D9"/>
</mask>
<g mask="url(#mask0_0_1)">
<path id="finance_chip_2" d="M9.87492 13.3959H10.3333V12.7084C10.7499 12.6418 11.0971 12.4871 11.3749 12.244C11.6527 12.0009 11.7916 11.6682 11.7916 11.2457C11.7916 10.8202 11.6423 10.5028 11.3437 10.2934C11.0451 10.0839 10.7083 9.88893 10.3333 9.70837V7.89587C10.4999 7.92365 10.6514 7.99365 10.7876 8.10587C10.924 8.21824 11.0226 8.34268 11.0833 8.47921L11.6458 8.22921C11.5208 7.96532 11.3467 7.759 11.1235 7.61025C10.9001 7.46164 10.6367 7.35546 10.3333 7.29171V6.60421H9.87492V7.28296C9.46867 7.32365 9.12402 7.46268 8.84096 7.70004C8.55804 7.9374 8.41659 8.25275 8.41659 8.64608C8.41659 9.04872 8.57284 9.36893 8.88534 9.60671C9.19784 9.84435 9.53464 10.0414 9.89575 10.1977V12.0625C9.60409 12.0209 9.37145 11.9167 9.19784 11.75C9.02422 11.5834 8.89575 11.382 8.81242 11.1459L8.22909 11.3896C8.3402 11.748 8.54068 12.0435 8.83054 12.2763C9.1204 12.5092 9.46853 12.655 9.87492 12.7136V13.3959ZM10.3333 12.0625V10.3542C10.5406 10.4492 10.7278 10.5771 10.8949 10.738C11.0621 10.8988 11.1458 11.07 11.1458 11.2515C11.1458 11.4589 11.0694 11.6389 10.9166 11.7917C10.7638 11.9445 10.5694 12.0348 10.3333 12.0625ZM9.87492 9.54171C9.6752 9.43351 9.48638 9.3058 9.30846 9.15858C9.13054 9.01122 9.04159 8.84379 9.04159 8.65629C9.04159 8.44671 9.12492 8.27449 9.29159 8.13962C9.45825 8.0049 9.6527 7.92365 9.87492 7.89587V9.54171ZM6.99992 14.9167C5.63034 14.9167 4.46846 14.4405 3.51429 13.4882C2.56027 12.5359 2.08325 11.3762 2.08325 10.009C2.08325 8.64192 2.56027 7.47921 3.51429 6.52087C4.46846 5.56254 5.63034 5.08337 6.99992 5.08337H12.9999C14.3695 5.08337 15.5314 5.55955 16.4855 6.51192C17.4396 7.46414 17.9166 8.62386 17.9166 9.99108C17.9166 11.3582 17.4396 12.5209 16.4855 13.4792C15.5314 14.4375 14.3695 14.9167 12.9999 14.9167H6.99992Z" fill="#1C1B1F"/>
</g>
</g>
</svg>
