<svg width="20" height="20" viewBox="0 0 20 20" fill="none" xmlns="http://www.w3.org/2000/svg">
<g id="price_check">
<mask id="mask0_0_1" style="mask-type:alpha" maskUnits="userSpaceOnUse" x="-1" y="-1" width="22" height="22">
<rect id="Bounding box" width="20" height="20" fill="#D9D9D9" stroke="#1E1E1E"/>
</mask>
<g mask="url(#mask0_0_1)">
<path id="price_check_2" d="M11.9376 15.6458L15.8334 11.75C15.889 11.6944 15.9341 11.6632 15.9688 11.6562C16.0036 11.6493 16.0556 11.6806 16.1251 11.75C16.1945 11.8194 16.2292 11.8715 16.2292 11.9062C16.2292 11.941 16.1945 11.9931 16.1251 12.0625L12.3126 15.8958C12.2065 16.0069 12.0827 16.0625 11.9413 16.0625C11.7999 16.0625 11.6714 16.0047 11.5557 15.889L9.54175 13.875C9.48619 13.8194 9.45841 13.7708 9.45841 13.7292C9.45841 13.6875 9.49314 13.6319 9.56258 13.5625C9.63203 13.4931 9.68411 13.4583 9.71883 13.4583C9.75355 13.4583 9.80564 13.4931 9.87508 13.5625L11.9376 15.6458ZM7.54175 11.7708V10.9792H5.75008C5.69036 10.9792 5.64071 10.9598 5.60112 10.921C5.56154 10.8823 5.54175 10.8337 5.54175 10.7752C5.54175 10.7167 5.56154 10.6667 5.60112 10.625C5.64071 10.5833 5.69036 10.5625 5.75008 10.5625H9.54175V7.97917H6.29175C6.09175 7.97917 5.91675 7.90417 5.76675 7.75417C5.61675 7.60417 5.54175 7.42917 5.54175 7.22917V5.3125C5.54175 5.1125 5.61675 4.9375 5.76675 4.7875C5.91675 4.6375 6.09175 4.5625 6.29175 4.5625H7.54175V3.77083C7.54175 3.71111 7.56112 3.66146 7.59987 3.62187C7.63862 3.58229 7.68723 3.5625 7.74571 3.5625C7.80418 3.5625 7.85425 3.58229 7.89591 3.62187C7.93758 3.66146 7.95841 3.71111 7.95841 3.77083V4.5625H9.75008C9.8098 4.5625 9.85946 4.58187 9.89904 4.62062C9.93862 4.65937 9.95842 4.70799 9.95842 4.76646C9.95842 4.82493 9.93862 4.875 9.89904 4.91667C9.85946 4.95833 9.8098 4.97917 9.75008 4.97917H5.95841V7.5625H9.20841C9.40841 7.5625 9.58342 7.6375 9.73342 7.7875C9.88342 7.9375 9.95842 8.1125 9.95842 8.3125V10.2292C9.95842 10.4292 9.88342 10.6042 9.73342 10.7542C9.58342 10.9042 9.40841 10.9792 9.20841 10.9792H7.95841V11.7708C7.95841 11.8306 7.93904 11.8802 7.90029 11.9198C7.86154 11.9594 7.81293 11.9792 7.75446 11.9792C7.69598 11.9792 7.64591 11.9594 7.60425 11.9198C7.56258 11.8802 7.54175 11.8306 7.54175 11.7708Z" fill="#1C1B1F" stroke="#1E1E1E"/>
</g>
</g>
</svg>
