<svg width="20" height="20" viewBox="0 0 20 20" fill="none" xmlns="http://www.w3.org/2000/svg">
<g id="currency_exchange">
<mask id="mask0_0_1" style="mask-type:alpha" maskUnits="userSpaceOnUse" x="0" y="0" width="20" height="20">
<rect id="Bounding box" width="20" height="20" fill="#D9D9D9"/>
</mask>
<g mask="url(#mask0_0_1)">
<path id="currency_exchange_2" d="M10.1251 13.6875C10.5279 13.6875 10.9654 13.5591 11.4376 13.3021C11.9098 13.0452 12.1459 12.6112 12.1459 12C12.1459 11.5417 12.0244 11.1875 11.7813 10.9375C11.5383 10.6875 11.0904 10.4445 10.4376 10.2084C9.9098 10.0139 9.31953 9.77435 8.66675 9.48962C8.01397 9.2049 7.68758 8.64587 7.68758 7.81254C7.68758 7.85421 7.76744 7.5799 7.92717 6.98962C8.08689 6.39935 8.69453 6.01393 9.75008 5.83337V5.18754C9.75008 5.10421 9.77439 5.03824 9.823 4.98962C9.87161 4.94101 9.93758 4.91671 10.0209 4.91671C10.1042 4.91671 10.1702 4.94101 10.2188 4.98962C10.2674 5.03824 10.2917 5.10421 10.2917 5.18754V5.81254C10.7501 5.89587 11.1216 6.03824 11.4063 6.23962C11.6911 6.44101 11.9167 6.64587 12.0834 6.85421C12.1251 6.90976 12.132 6.95837 12.1042 7.00004C12.0765 7.04171 12.0348 7.07643 11.9792 7.10421C11.9376 7.13199 11.8855 7.1424 11.823 7.13546C11.7605 7.12851 11.7015 7.09726 11.6459 7.04171C11.4792 6.83337 11.264 6.65629 11.0001 6.51046C10.7362 6.36462 10.4237 6.29171 10.0626 6.29171C9.70147 6.29171 9.30564 6.42018 8.87508 6.67712C8.44453 6.93407 8.22925 7.3056 8.22925 7.79171C8.22925 8.25004 8.35772 8.59032 8.61467 8.81254C8.87161 9.03476 9.4098 9.29171 10.2292 9.58337C11.1598 9.90282 11.7952 10.2466 12.1355 10.6146C12.4758 10.9827 12.6459 11.4445 12.6459 12C12.6459 12.5 12.5313 12.9028 12.3022 13.2084C12.073 13.5139 11.8126 13.7466 11.5209 13.9063C11.2292 14.066 10.9584 14.1632 10.7084 14.198C10.4584 14.2327 10.3126 14.2292 10.2709 14.1875V14.8125C10.2709 14.8959 10.2466 14.9618 10.198 15.0105C10.1494 15.0591 10.0834 15.0834 10.0001 15.0834C9.91675 15.0834 9.85078 15.0591 9.80217 15.0105C9.75355 14.9618 9.72925 14.8959 9.72925 14.8125V14.1667C9.52092 14.0973 9.20147 13.9723 8.77092 13.7917C8.34036 13.6112 7.95842 13.2362 7.62508 12.6667C7.58342 12.6112 7.56953 12.5417 7.58342 12.4584C7.5973 12.375 7.63897 12.3195 7.70842 12.2917C7.76397 12.2639 7.82994 12.257 7.90633 12.2709C7.98272 12.2848 8.04175 12.3264 8.08342 12.3959C8.26397 12.6875 8.51744 12.9757 8.84383 13.2605C9.17022 13.5452 9.5973 13.6875 10.1251 13.6875ZM10.0001 17.9167C8.25008 17.9167 6.69453 17.4271 5.33342 16.448C3.9723 15.4688 2.99314 14.1459 2.39591 12.4792V15.4584C2.39591 15.5139 2.37508 15.5625 2.33341 15.6042C2.29175 15.6459 2.24314 15.6667 2.18758 15.6667C2.13203 15.6667 2.08341 15.6459 2.04175 15.6042C2.00008 15.5625 1.97925 15.5139 1.97925 15.4584V12.2917C1.97925 12.1389 2.03133 12.0105 2.1355 11.9063C2.23966 11.8021 2.36814 11.75 2.52091 11.75H5.68758C5.74314 11.75 5.79175 11.7709 5.83342 11.8125C5.87508 11.8542 5.89592 11.9028 5.89592 11.9584C5.89592 12.0139 5.87508 12.0625 5.83342 12.1042C5.79175 12.1459 5.74314 12.1667 5.68758 12.1667H2.75008C3.25008 13.7778 4.17022 15.0695 5.5105 16.0417C6.85078 17.0139 8.3473 17.5 10.0001 17.5C11.9029 17.5 13.5556 16.882 14.9584 15.6459C16.3612 14.4098 17.1876 12.8264 17.4376 10.8959C17.4515 10.8125 17.4758 10.7327 17.5105 10.6563C17.5452 10.5799 17.6042 10.5417 17.6876 10.5417C17.7431 10.5417 17.7883 10.5799 17.823 10.6563C17.8577 10.7327 17.8681 10.8125 17.8542 10.8959C17.7431 11.882 17.4654 12.8021 17.0209 13.6563C16.5765 14.5105 16.0036 15.2535 15.3022 15.8855C14.6008 16.5174 13.7952 17.0139 12.8855 17.375C11.9758 17.7362 11.014 17.9167 10.0001 17.9167ZM10.0001 2.50004C8.18064 2.50004 6.55217 3.09379 5.11467 4.28129C3.67716 5.46879 2.82647 7.06949 2.56258 9.08337C2.54869 9.16671 2.52439 9.25004 2.48966 9.33337C2.45494 9.41671 2.39591 9.45837 2.31258 9.45837C2.24314 9.45837 2.19453 9.42018 2.16675 9.34379C2.13897 9.2674 2.13203 9.1806 2.14591 9.08337C2.2848 8.04171 2.58689 7.09032 3.05216 6.22921C3.51744 5.3681 4.10078 4.63199 4.80217 4.02087C5.50355 3.40976 6.30217 2.93407 7.198 2.59379C8.09383 2.25351 9.02786 2.08337 10.0001 2.08337C11.7084 2.08337 13.264 2.57643 14.6667 3.56254C16.0695 4.54865 17.0487 5.89587 17.6042 7.60421V4.54171C17.6042 4.48615 17.6251 4.43754 17.6667 4.39587C17.7084 4.35421 17.757 4.33337 17.8126 4.33337C17.8681 4.33337 17.9167 4.35421 17.9584 4.39587C18.0001 4.43754 18.0209 4.48615 18.0209 4.54171V7.70837C18.0209 7.86115 17.9688 7.98962 17.8647 8.09379C17.7605 8.19796 17.632 8.25004 17.4792 8.25004H14.3126C14.257 8.25004 14.2084 8.22921 14.1667 8.18754C14.1251 8.14587 14.1042 8.09726 14.1042 8.04171C14.1042 7.98615 14.1251 7.93754 14.1667 7.89587C14.2084 7.85421 14.257 7.83337 14.3126 7.83337H17.2501C16.7917 6.27782 15.889 5.00004 14.5417 4.00004C13.1945 3.00004 11.6806 2.50004 10.0001 2.50004Z" fill="#1C1B1F" stroke="black"/>
</g>
</g>
</svg>
