<svg width="20" height="20" viewBox="0 0 20 20" fill="none" xmlns="http://www.w3.org/2000/svg">
<g id="input_circle">
<mask id="mask0_0_1" style="mask-type:alpha" maskUnits="userSpaceOnUse" x="-1" y="-1" width="22" height="22">
<rect id="Bounding box" width="20" height="20" fill="#D9D9D9" stroke="black"/>
</mask>
<g mask="url(#mask0_0_1)">
<path id="input_circle_2" d="M9.79159 8.89575V16.2499C9.79159 16.3048 9.8127 16.3533 9.85492 16.3953C9.897 16.4373 9.94561 16.4583 10.0008 16.4583C10.0558 16.4583 10.1041 16.4373 10.1458 16.3953C10.1874 16.3533 10.2083 16.3048 10.2083 16.2499V8.89575L12.8124 11.4791C12.868 11.5346 12.9201 11.552 12.9687 11.5312C13.0173 11.5103 13.0636 11.4791 13.1076 11.4374C13.1608 11.3864 13.1874 11.339 13.1874 11.2951C13.1874 11.2511 13.1596 11.2013 13.1041 11.1458L10.3749 8.45825C10.2638 8.34714 10.1388 8.29159 9.99992 8.29159C9.86103 8.29159 9.73603 8.34714 9.62492 8.45825L6.89575 11.1874C6.8402 11.243 6.82284 11.2916 6.84367 11.3333C6.8645 11.3749 6.89693 11.4178 6.94096 11.4618C6.99416 11.515 7.03811 11.5416 7.07284 11.5416C7.10756 11.5416 7.1527 11.5138 7.20825 11.4583L9.79159 8.89575ZM5.39575 5.39575C4.13186 6.65964 3.49992 8.19436 3.49992 9.99992C3.49992 10.4999 3.55547 10.9873 3.66659 11.462C3.7777 11.9367 3.94436 12.4008 4.16659 12.8541C4.20825 12.8958 4.2227 12.9482 4.20992 13.0114C4.19728 13.0746 4.17172 13.1244 4.13325 13.161C4.08603 13.2064 4.03464 13.2291 3.97909 13.2291C3.92353 13.2291 3.88881 13.2221 3.87492 13.2083C3.61103 12.7221 3.41311 12.2064 3.28117 11.661C3.14922 11.1155 3.08325 10.5619 3.08325 9.99992C3.08325 9.03867 3.26304 8.14131 3.62263 7.30784C3.98221 6.47436 4.4777 5.74179 5.10909 5.11013C5.74047 4.47846 6.4761 3.98277 7.31596 3.62304C8.15596 3.26318 9.0529 3.08325 10.0068 3.08325C10.9605 3.08325 11.8545 3.26304 12.6887 3.62263C13.5228 3.98235 14.256 4.4779 14.888 5.10929C15.5203 5.74068 16.0164 6.47297 16.3764 7.30617C16.7365 8.13922 16.9166 9.03624 16.9166 9.99721C16.9166 10.5685 16.8402 11.1284 16.6874 11.677C16.5346 12.2256 16.3263 12.7499 16.0624 13.2499C16.0485 13.2638 16.0312 13.2638 16.0103 13.2499C15.9895 13.236 15.9583 13.2083 15.9166 13.1666C15.861 13.111 15.8333 13.052 15.8333 12.9895C15.8333 12.927 15.8471 12.868 15.8749 12.8124C16.0694 12.3613 16.2221 11.9031 16.3333 11.4378C16.4444 10.9724 16.4999 10.4931 16.4999 9.99992C16.4999 8.19436 15.868 6.65964 14.6041 5.39575C13.3402 4.13186 11.8055 3.49992 9.99992 3.49992C8.19436 3.49992 6.65964 4.13186 5.39575 5.39575Z" fill="#1C1B1F" stroke="black"/>
</g>
</g>
</svg>
