<svg width="20" height="20" viewBox="0 0 20 20" fill="none" xmlns="http://www.w3.org/2000/svg">
<g id="money_bag">
<mask id="mask0_0_1" style="mask-type:alpha" maskUnits="userSpaceOnUse" x="0" y="0" width="20" height="20">
<rect id="Bounding box" width="20" height="20" fill="#D9D9D9"/>
</mask>
<g mask="url(#mask0_0_1)">
<path id="money_bag_2" d="M9.99117 12.6875C9.622 12.6875 9.30895 12.5562 9.052 12.2934C8.79506 12.0305 8.66659 11.7145 8.66659 11.3455C8.66659 10.9763 8.79797 10.6632 9.06075 10.4063C9.32367 10.1493 9.63964 10.0209 10.0087 10.0209C10.3778 10.0209 10.6909 10.1523 10.9478 10.415C11.2048 10.678 11.3333 10.9939 11.3333 11.363C11.3333 11.7321 11.2019 12.0452 10.9391 12.3021C10.6762 12.5591 10.3602 12.6875 9.99117 12.6875ZM7.45825 6.81254H12.5416L13.3603 4.82004C13.4395 4.63448 13.4281 4.46532 13.3262 4.31254C13.2242 4.15976 13.0713 4.08337 12.8674 4.08337H7.12492C6.92353 4.08337 6.77249 4.15976 6.67179 4.31254C6.5711 4.46532 6.56034 4.63448 6.6395 4.82004L7.45825 6.81254ZM7.52075 15.9167H12.4791C13.4339 15.9167 14.2456 15.5764 14.9141 14.8959C15.5824 14.2153 15.9166 13.4098 15.9166 12.4794C15.9166 12.0908 15.8545 11.7148 15.7303 11.3515C15.6062 10.988 15.4252 10.6556 15.1874 10.3542L12.6633 7.22921H7.31242L4.81242 10.3542C4.57464 10.6557 4.39367 10.9882 4.2695 11.3515C4.14534 11.715 4.08325 12.0885 4.08325 12.4721C4.08325 13.4074 4.42353 14.2153 5.10409 14.8959C5.78464 15.5764 6.5902 15.9167 7.52075 15.9167Z" fill="#1C1B1F"/>
</g>
</g>
</svg>
