<svg width="20" height="20" viewBox="0 0 20 20" fill="none" xmlns="http://www.w3.org/2000/svg">
<g id="account_child_invert">
<mask id="mask0_0_1" style="mask-type:alpha" maskUnits="userSpaceOnUse" x="0" y="0" width="20" height="20">
<rect id="Bounding box" width="20" height="20" fill="#D9D9D9"/>
</mask>
<g mask="url(#mask0_0_1)">
<path id="account_child_invert_2" d="M10 3.625C10.5417 3.625 11.0104 3.82292 11.4062 4.21875C11.8021 4.61458 12 5.08333 12 5.625C12 6.16667 11.8021 6.63542 11.4062 7.03125C11.0104 7.42708 10.5417 7.625 10 7.625C9.45833 7.625 8.98958 7.42708 8.59375 7.03125C8.19792 6.63542 8 6.16667 8 5.625C8 5.08333 8.19792 4.61458 8.59375 4.21875C8.98958 3.82292 9.45833 3.625 10 3.625ZM10.0135 8.45833C10.4669 8.45833 10.9287 8.51389 11.399 8.625C11.8691 8.73611 12.3125 8.88889 12.7292 9.08333C13.1597 9.31944 13.4583 9.53028 13.625 9.71583C13.7917 9.90139 13.875 10.1281 13.875 10.3958V14.2917C13.875 14.5993 13.7642 14.8602 13.5425 15.0744C13.3207 15.2887 13.0588 15.3958 12.7569 15.3958C12.6337 15.3958 12.5323 15.3646 12.4527 15.3021C12.3731 15.2396 12.3333 15.0903 12.3333 14.8542V14.5C12.3333 14.041 12.1477 13.6971 11.7765 13.4683C11.4052 13.2394 10.8131 13.125 10 13.125C9.31944 13.125 8.77431 13.2188 8.36458 13.4062C7.95486 13.5938 7.71528 13.8611 7.64583 14.2083C7.61806 14.3333 7.63361 14.4339 7.6925 14.51C7.75139 14.5863 7.83306 14.6524 7.9375 14.7083C8.27083 14.8611 8.63889 14.9722 9.04167 15.0417C9.44444 15.1111 9.80139 15.1389 10.1125 15.125C10.245 15.125 10.3601 15.1738 10.4577 15.2715C10.5553 15.369 10.6042 15.487 10.6042 15.6256C10.6042 15.7641 10.5554 15.8819 10.4579 15.9792C10.3604 16.0764 10.2425 16.125 10.1042 16.125C9.61806 16.125 9.13889 16.0833 8.66667 16C8.19444 15.9167 7.77431 15.7917 7.40625 15.625C6.96875 15.4306 6.64583 15.2431 6.4375 15.0625C6.22917 14.8819 6.125 14.6181 6.125 14.2708V10.375C6.125 10.1072 6.20833 9.87708 6.375 9.68458C6.54167 9.49208 6.83326 9.29146 7.24979 9.08271C7.6666 8.88868 8.11806 8.73611 8.60417 8.625C9.09028 8.51389 9.56007 8.45833 10.0135 8.45833ZM10.0044 12.4583C10.3265 12.4583 10.6007 12.3437 10.8271 12.1144C11.0535 11.8851 11.1667 11.6094 11.1667 11.2873C11.1667 10.9652 11.052 10.691 10.8227 10.4646C10.5934 10.2382 10.3177 10.125 9.99563 10.125C9.67354 10.125 9.39931 10.2397 9.17292 10.469C8.94653 10.6983 8.83333 10.974 8.83333 11.296C8.83333 11.6181 8.94799 11.8924 9.17729 12.1188C9.4066 12.3451 9.68229 12.4583 10.0044 12.4583Z" fill="#1C1B1F"/>
</g>
</g>
</svg>
