<svg width="20" height="20" viewBox="0 0 20 20" fill="none" xmlns="http://www.w3.org/2000/svg">
<g id="payment_arrow_down">
<mask id="mask0_0_1" style="mask-type:alpha" maskUnits="userSpaceOnUse" x="0" y="0" width="20" height="20">
<rect id="Bounding box" width="20" height="20" fill="#D9D9D9"/>
</mask>
<g mask="url(#mask0_0_1)">
<path id="payment_arrow_down_2" d="M10.2226 16.6666C10.2826 16.6388 10.3428 16.5947 10.4032 16.5343L12.1251 14.8124C12.1806 14.7614 12.2084 14.714 12.2084 14.6701C12.2084 14.6261 12.1806 14.5763 12.1251 14.5208C12.0695 14.4652 12.0197 14.4374 11.9757 14.4374C11.9318 14.4374 11.8844 14.4652 11.8334 14.5208L10.2292 16.1249V12.3749C10.2292 12.3159 10.2097 12.2664 10.1705 12.2264C10.1312 12.1865 10.0826 12.1666 10.0247 12.1666C9.96661 12.1666 9.91328 12.1865 9.86467 12.2264C9.81605 12.2664 9.79175 12.3159 9.79175 12.3749V16.1249L8.18758 14.5208C8.13203 14.4652 8.08689 14.4374 8.05217 14.4374C8.01744 14.4374 7.9723 14.4652 7.91675 14.5208C7.86119 14.5763 7.83342 14.6261 7.83342 14.6701C7.83342 14.714 7.86119 14.7614 7.91675 14.8124L9.63591 16.526C9.70216 16.5919 9.76619 16.6388 9.828 16.6666C9.8898 16.6944 9.95605 16.7083 10.0267 16.7083C10.0973 16.7083 10.1626 16.6944 10.2226 16.6666ZM9.98967 8.12492C10.3994 8.12492 10.7397 7.99297 11.0105 7.72909C11.2813 7.4652 11.4167 7.12839 11.4167 6.71867C11.4167 6.30895 11.2813 5.96867 11.0105 5.69784C10.7397 5.427 10.4029 5.29159 10.0001 5.29159C9.58342 5.29159 9.24314 5.427 8.97925 5.69784C8.71536 5.96867 8.58342 6.30547 8.58342 6.70825C8.58342 7.12492 8.71536 7.4652 8.97925 7.72909C9.24314 7.99297 9.57994 8.12492 9.98967 8.12492ZM4.68758 10.3333C4.38966 10.3333 4.1346 10.2272 3.92237 10.0151C3.71029 9.80291 3.60425 9.54784 3.60425 9.24992V4.16659C3.60425 3.87839 3.71029 3.62575 3.92237 3.40867C4.1346 3.19172 4.38966 3.08325 4.68758 3.08325H15.3334C15.6216 3.08325 15.8742 3.19172 16.0913 3.40867C16.3083 3.62575 16.4167 3.87839 16.4167 4.16659V9.24992C16.4167 9.54784 16.3083 9.80291 16.0913 10.0151C15.8742 10.2272 15.6216 10.3333 15.3334 10.3333H4.68758ZM4.68758 9.91659H5.10425C5.10425 9.62492 4.99578 9.37145 4.77883 9.15617C4.56175 8.94089 4.30911 8.83325 4.02091 8.83325L4.06258 9.24992C4.06258 9.43047 4.12161 9.58672 4.23966 9.71867C4.35772 9.85061 4.50703 9.91659 4.68758 9.91659ZM14.9167 9.91659H15.3751C15.5556 9.91659 15.7119 9.85061 15.8438 9.71867C15.9758 9.58672 16.0417 9.43047 16.0417 9.24992L16.0001 8.83325C15.6987 8.83325 15.4428 8.94172 15.2324 9.15867C15.022 9.37575 14.9167 9.62839 14.9167 9.91659ZM16.0001 4.58325L16.0417 4.16659C16.0417 3.98603 15.9758 3.82978 15.8438 3.69784C15.7119 3.56589 15.5556 3.49992 15.3751 3.49992H14.9167C14.9167 3.80547 15.0229 4.06242 15.2351 4.27075C15.4472 4.47909 15.7022 4.58325 16.0001 4.58325ZM4.02091 4.58325C4.31258 4.58325 4.56605 4.47714 4.78133 4.26492C4.99661 4.05283 5.10425 3.79784 5.10425 3.49992H4.68758C4.50703 3.49992 4.35772 3.56589 4.23966 3.69784C4.12161 3.82978 4.06258 3.98603 4.06258 4.16659L4.02091 4.58325Z" fill="#1C1B1F"/>
</g>
</g>
</svg>
