<svg width="20" height="20" viewBox="0 0 20 20" fill="none" xmlns="http://www.w3.org/2000/svg">
<g id="approval_delegation">
<mask id="mask0_0_1" style="mask-type:alpha" maskUnits="userSpaceOnUse" x="0" y="0" width="20" height="20">
<rect id="Bounding box" width="20" height="20" fill="#D9D9D9"/>
</mask>
<g mask="url(#mask0_0_1)">
<path id="approval_delegation_2" d="M11.6666 17.6667L5.41659 15.8751V11.0001H7.18742C7.28464 11.0001 7.37145 11.007 7.44784 11.0209C7.52422 11.0348 7.5902 11.0556 7.64575 11.0834L11.8749 12.5626C12.2499 12.7014 12.5833 12.941 12.8749 13.2813C13.1666 13.6216 13.3124 13.9862 13.3124 14.3751C13.3124 14.3612 13.3298 14.3403 13.3645 14.3126C13.3992 14.2848 13.4096 14.2709 13.3958 14.2709H13.0416C12.5694 14.257 12.1076 14.2223 11.6562 14.1667C11.2048 14.1112 10.7916 14.0209 10.4166 13.8959L9.54159 13.6042C9.43047 13.5626 9.32631 13.5626 9.22909 13.6042C9.13186 13.6459 9.05547 13.7223 8.99992 13.8334C8.94436 13.9445 8.94436 14.0626 8.99992 14.1876C9.05547 14.3126 9.14575 14.3889 9.27075 14.4167L9.89575 14.5834C10.4235 14.7501 10.9235 14.8612 11.3958 14.9167C11.868 14.9723 12.4027 15.0001 12.9999 15.0001H16.6041C16.9096 15.0001 17.1353 15.1008 17.2812 15.3021C17.427 15.5035 17.4999 15.7501 17.4999 16.0417L12.3541 17.7084C12.243 17.7501 12.1249 17.7605 11.9999 17.7396C11.8749 17.7188 11.7638 17.6945 11.6666 17.6667ZM3.08325 16.4167V11.5001C3.08325 11.3473 3.12839 11.2258 3.21867 11.1355C3.30895 11.0452 3.43047 11.0001 3.58325 11.0001H4.49992C4.6527 11.0001 4.77422 11.0452 4.8645 11.1355C4.95478 11.2258 4.99992 11.3473 4.99992 11.5001V16.4167C4.99992 16.5695 4.95478 16.691 4.8645 16.7813C4.77422 16.8716 4.6527 16.9167 4.49992 16.9167H3.58325C3.43047 16.9167 3.30895 16.8716 3.21867 16.7813C3.12839 16.691 3.08325 16.5695 3.08325 16.4167ZM11.5833 8.41672L15.3541 4.64589C15.4096 4.59033 15.4548 4.5695 15.4895 4.58339C15.5242 4.59728 15.5624 4.62506 15.6041 4.66672C15.6596 4.72228 15.6874 4.77089 15.6874 4.81256C15.6874 4.85422 15.6596 4.90283 15.6041 4.95839L11.9583 8.60422C11.8471 8.71533 11.7221 8.77089 11.5833 8.77089C11.4444 8.77089 11.3194 8.71533 11.2083 8.60422L9.68742 7.08339C9.64575 7.04172 9.61797 6.99311 9.60409 6.93756C9.5902 6.882 9.61103 6.83339 9.66659 6.79172C9.70825 6.73617 9.76034 6.71533 9.82284 6.72922C9.88534 6.74311 9.93742 6.77089 9.97909 6.81256L11.5833 8.41672Z" fill="#1C1B1F"/>
</g>
</g>
</svg>
