<svg width="20" height="20" viewBox="0 0 20 20" fill="none" xmlns="http://www.w3.org/2000/svg">
<g id="parent_child_dining">
<mask id="mask0_0_1" style="mask-type:alpha" maskUnits="userSpaceOnUse" x="0" y="0" width="20" height="20">
<rect id="Bounding box" width="20" height="20" fill="#D9D9D9"/>
</mask>
<g mask="url(#mask0_0_1)">
<path id="parent_child_dining_2" d="M8.2395 6.77083C7.73256 6.77083 7.29853 6.59056 6.93742 6.23C6.57631 5.86944 6.39575 5.43167 6.39575 4.91667C6.39575 4.41667 6.57603 3.98264 6.93659 3.61458C7.29714 3.24653 7.73492 3.0625 8.24992 3.0625C8.74992 3.0625 9.18395 3.24653 9.552 3.61458C9.92006 3.98264 10.1041 4.42014 10.1041 4.92708C10.1041 5.43403 9.92006 5.86806 9.552 6.22917C9.18395 6.59028 8.74645 6.77083 8.2395 6.77083ZM2.29159 16.9167C2.23256 16.9167 2.18311 16.8971 2.14325 16.8579C2.10325 16.8186 2.08325 16.77 2.08325 16.7121C2.08325 16.654 2.10325 16.6042 2.14325 16.5625C2.18311 16.5208 2.23256 16.5 2.29159 16.5H4.08325V10.4375C4.08325 10.2431 4.18047 10.0521 4.37492 9.86458C4.56936 9.67708 4.87492 9.46528 5.29159 9.22917C5.7777 9.00694 6.24992 8.84722 6.70825 8.75C7.16659 8.65278 7.68047 8.60417 8.24992 8.60417C8.86103 8.60417 9.4027 8.65625 9.87492 8.76042C10.3471 8.86458 10.8124 9.04167 11.2708 9.29167C11.6874 9.54167 11.9791 9.74653 12.1458 9.90625C12.3124 10.066 12.3958 10.2431 12.3958 10.4375V11.2917C12.3958 11.4451 12.3442 11.5737 12.2412 11.6775C12.1381 11.7814 12.0105 11.8333 11.8583 11.8333H9.68742C9.63186 11.5 9.47172 11.2118 9.207 10.9688C8.94242 10.7257 8.62082 10.6042 8.24221 10.6042C7.84013 10.6042 7.49784 10.7446 7.21534 11.0254C6.93284 11.3063 6.79159 11.65 6.79159 12.0567C6.79159 12.4633 6.93325 12.809 7.21659 13.0938C7.50006 13.3785 7.847 13.5208 8.25742 13.5208C8.48853 13.5208 8.69596 13.4722 8.87971 13.375C9.0636 13.2778 9.22867 13.1528 9.37492 13L9.91659 15.0417C9.63881 15.0139 9.35756 14.9826 9.07284 14.9479C8.78811 14.9132 8.51381 14.8958 8.24992 14.8958C7.47214 14.8958 6.72214 14.9722 5.99992 15.125C5.2777 15.2778 4.73603 15.5069 4.37492 15.8125V16.5H12.2708L11.7405 14.4185C11.6912 14.2506 11.7215 14.0972 11.8314 13.9583C11.9412 13.8194 12.0877 13.75 12.2708 13.75H17.0833C17.2492 13.75 17.3914 13.8191 17.5097 13.9573C17.6282 14.0955 17.6619 14.2476 17.611 14.4135L17.3124 15.5208C17.2569 15.7039 17.1874 15.8775 17.1041 16.0417C17.0208 16.2058 16.9166 16.3586 16.7916 16.5H17.7083C17.7673 16.5 17.8168 16.5196 17.8568 16.5588C17.8967 16.5981 17.9166 16.6467 17.9166 16.7046C17.9166 16.7626 17.8967 16.8125 17.8568 16.8542C17.8168 16.8958 17.7673 16.9167 17.7083 16.9167H2.29159Z" fill="#1C1B1F"/>
</g>
</g>
</svg>
