<svg width="20" height="20" viewBox="0 0 20 20" fill="none" xmlns="http://www.w3.org/2000/svg">
<g id="mintmark">
<mask id="mask0_0_1" style="mask-type:alpha" maskUnits="userSpaceOnUse" x="-1" y="-1" width="22" height="22">
<rect id="Bounding box" width="20" height="20" fill="#D9D9D9" stroke="#1E1E1E"/>
</mask>
<g mask="url(#mask0_0_1)">
<path id="mintmark_2" d="M15.6042 16.0416L11.4792 11.9166C11.4283 11.8645 11.4017 11.8122 11.3995 11.7595C11.3971 11.7069 11.4237 11.6551 11.4792 11.6041C11.5348 11.5486 11.5883 11.5208 11.6399 11.5208C11.6913 11.5208 11.7429 11.5469 11.7949 11.5991L15.9167 15.7291V11.7473C15.9167 11.6889 15.9363 11.6401 15.9755 11.6008C16.0148 11.5613 16.0634 11.5416 16.1213 11.5416C16.1794 11.5416 16.2292 11.5615 16.2709 11.6012C16.3126 11.6411 16.3334 11.6904 16.3334 11.7491V15.9108C16.3334 16.064 16.2816 16.1935 16.178 16.2993C16.0742 16.4053 15.9458 16.4583 15.7926 16.4583H11.6309C11.5722 16.4583 11.5218 16.4387 11.4799 16.3995C11.4378 16.3602 11.4167 16.3116 11.4167 16.2537C11.4167 16.1957 11.4365 16.1458 11.4759 16.1041C11.5152 16.0625 11.564 16.0416 11.6224 16.0416H15.6042ZM5.91675 12.4583H3.87508C3.81605 12.4583 3.76661 12.4387 3.72675 12.3995C3.68675 12.3602 3.66675 12.3116 3.66675 12.2537C3.66675 12.1957 3.68675 12.1467 3.72675 12.1068C3.76661 12.0668 3.81605 12.0468 3.87508 12.0468H7.50008C7.69453 12.0468 7.85425 11.9843 7.97925 11.8593C8.10425 11.7343 8.16675 11.5746 8.16675 11.3802V9.37496C8.16675 9.18051 8.10425 9.02079 7.97925 8.89579C7.85425 8.77079 7.69453 8.70829 7.50008 8.70829H4.75008C4.45216 8.70829 4.1971 8.60218 3.98487 8.38996C3.77279 8.17788 3.66675 7.92288 3.66675 7.62496V5.62496C3.66675 5.32704 3.77279 5.07204 3.98487 4.85996C4.1971 4.64774 4.45216 4.54163 4.75008 4.54163H5.91675V3.74996C5.91675 3.69093 5.93633 3.64142 5.9755 3.60142C6.0148 3.56156 6.06342 3.54163 6.12133 3.54163C6.17939 3.54163 6.22925 3.56156 6.27091 3.60142C6.31258 3.64142 6.33341 3.69093 6.33341 3.74996V4.54163H8.37508C8.43411 4.54163 8.48362 4.56121 8.52362 4.60038C8.56348 4.63968 8.58342 4.68829 8.58342 4.74621C8.58342 4.80427 8.56348 4.85322 8.52362 4.89308C8.48362 4.93308 8.43411 4.95308 8.37508 4.95308H4.75008C4.55564 4.95308 4.39591 5.01558 4.27091 5.14058C4.14591 5.26558 4.08341 5.42531 4.08341 5.61975V7.62496C4.08341 7.8194 4.14591 7.97913 4.27091 8.10413C4.39591 8.22913 4.55564 8.29163 4.75008 8.29163H7.50008C7.798 8.29163 8.05307 8.39774 8.26529 8.60996C8.47737 8.82204 8.58342 9.07704 8.58342 9.37496V11.375C8.58342 11.6729 8.47737 11.9279 8.26529 12.1402C8.05307 12.3523 7.798 12.4583 7.50008 12.4583H6.33341V13.25C6.33341 13.309 6.31383 13.3584 6.27466 13.3983C6.23536 13.4383 6.18675 13.4583 6.12883 13.4583C6.07078 13.4583 6.02091 13.4383 5.97925 13.3983C5.93758 13.3584 5.91675 13.309 5.91675 13.25V12.4583Z" fill="#1C1B1F" stroke="#1E1E1E"/>
</g>
</g>
</svg>
