<svg width="20" height="20" viewBox="0 0 20 20" fill="none" xmlns="http://www.w3.org/2000/svg">
<g id="guardian">
<mask id="mask0_0_1" style="mask-type:alpha" maskUnits="userSpaceOnUse" x="-1" y="-1" width="22" height="22">
<rect id="Bounding box" width="20" height="20" fill="#D9D9D9" stroke="black"/>
</mask>
<g mask="url(#mask0_0_1)">
<path id="guardian_2" d="M9.99992 17.9167C7.7552 17.9167 5.87457 17.5298 4.35804 16.756C2.84152 15.9824 2.08325 15.012 2.08325 13.8448C2.08325 13.4719 2.16659 13.1198 2.33325 12.7885C2.49992 12.4573 2.76728 12.1389 3.13534 11.8333C3.4895 11.5417 3.91763 11.2756 4.41971 11.035C4.92179 10.7944 5.4902 10.5814 6.12492 10.3958C6.18047 10.3819 6.23631 10.3882 6.29242 10.4146C6.34867 10.4411 6.39006 10.4902 6.41659 10.5619C6.44436 10.6178 6.43395 10.6701 6.38534 10.7188C6.33672 10.7674 6.2777 10.7986 6.20825 10.8125C5.6527 10.9653 5.14228 11.1597 4.677 11.3958C4.21172 11.6319 3.81242 11.8889 3.47909 12.1667C3.14575 12.4306 2.89922 12.6979 2.7395 12.9688C2.57978 13.2396 2.49992 13.5347 2.49992 13.8542C2.49992 14.8375 3.2395 15.691 4.71867 16.4146C6.19784 17.1382 7.95825 17.5 9.99992 17.5C12.0416 17.5 13.802 17.1382 15.2812 16.4146C16.7603 15.691 17.4999 14.8375 17.4999 13.8542C17.4999 13.5347 17.4201 13.2396 17.2603 12.9688C17.1006 12.6979 16.8541 12.4306 16.5208 12.1667C16.1874 11.8889 15.7881 11.6319 15.3228 11.3958C14.8576 11.1597 14.3471 10.9653 13.7916 10.8125C13.7221 10.7986 13.6631 10.7661 13.6145 10.715C13.5659 10.6639 13.5555 10.6108 13.5833 10.5558C13.6053 10.4947 13.6464 10.4458 13.7064 10.4092C13.7662 10.3725 13.8294 10.3681 13.8958 10.3958C14.4235 10.5347 14.9131 10.7083 15.3645 10.9167C15.8159 11.125 16.2083 11.3403 16.5416 11.5625C16.986 11.8992 17.3263 12.2565 17.5624 12.6346C17.7985 13.0128 17.9166 13.416 17.9166 13.8442C17.9166 15.0118 17.1583 15.9824 15.6418 16.756C14.1253 17.5298 12.2446 17.9167 9.99992 17.9167ZM8.572 14.8333C8.52395 14.8333 8.47909 14.8133 8.43742 14.7733C8.39575 14.7335 8.37492 14.684 8.37492 14.625V6.52083H5.292C5.25075 6.52083 5.20561 6.50076 5.15659 6.46062C5.1077 6.42062 5.08325 6.37097 5.08325 6.31167C5.08325 6.27056 5.10325 6.22569 5.14325 6.17708C5.18311 6.12847 5.23256 6.10417 5.29159 6.10417H14.7083C14.7492 6.10417 14.7942 6.12875 14.843 6.17792C14.8921 6.22694 14.9166 6.27556 14.9166 6.32375C14.9166 6.37181 14.8921 6.41667 14.843 6.45833C14.7942 6.5 14.7491 6.52083 14.7078 6.52083H11.6249V14.625C11.6249 14.666 11.6003 14.711 11.5512 14.76C11.5021 14.8089 11.4535 14.8333 11.4053 14.8333C11.3573 14.8333 11.3124 14.8133 11.2708 14.7733C11.2291 14.7335 11.2083 14.684 11.2083 14.625V10.8958H8.79159V14.625C8.79159 14.666 8.767 14.711 8.71784 14.76C8.66881 14.8089 8.6202 14.8333 8.572 14.8333ZM9.99534 4.64583C9.67895 4.64583 9.40964 4.53313 9.18742 4.30771C8.9652 4.08229 8.85409 3.81132 8.85409 3.49479C8.85409 3.16688 8.96672 2.88785 9.192 2.65771C9.41728 2.42757 9.68811 2.3125 10.0045 2.3125C10.3209 2.3125 10.5902 2.42931 10.8124 2.66292C11.0346 2.89639 11.1458 3.17715 11.1458 3.50521C11.1458 3.82174 11.0331 4.09097 10.8078 4.31292C10.5826 4.53486 10.3117 4.64583 9.99534 4.64583Z" fill="#1C1B1F" stroke="black"/>
</g>
</g>
</svg>
