<svg width="20" height="20" viewBox="0 0 20 20" fill="none" xmlns="http://www.w3.org/2000/svg">
<g id="account_circle">
<mask id="mask0_0_1" style="mask-type:alpha" maskUnits="userSpaceOnUse" x="0" y="0" width="20" height="20">
<rect id="Bounding box" width="20" height="20" fill="#D9D9D9"/>
</mask>
<g mask="url(#mask0_0_1)">
<path id="account_circle_2" d="M5.22596 14.383C5.97596 13.8873 6.73797 13.519 7.512 13.2782C8.28603 13.0372 9.11534 12.9167 9.99992 12.9167C10.8845 12.9167 11.7138 13.0372 12.4878 13.2782C13.2619 13.519 14.0239 13.8873 14.7739 14.383C15.3242 13.8135 15.7494 13.1549 16.0495 12.4071C16.3498 11.6592 16.4999 10.8568 16.4999 10C16.4999 8.19449 15.868 6.65976 14.6041 5.39587C13.3402 4.13199 11.8055 3.50004 9.99992 3.50004C8.19436 3.50004 6.65964 4.13199 5.39575 5.39587C4.13186 6.65976 3.49992 8.19449 3.49992 10C3.49992 10.8568 3.65006 11.6592 3.95034 12.4071C4.25047 13.1549 4.67568 13.8135 5.22596 14.383ZM8.17138 10.3286C7.66818 9.82539 7.41659 9.21587 7.41659 8.50004C7.41659 7.78421 7.66818 7.17469 8.17138 6.6715C8.67457 6.1683 9.28409 5.91671 9.99992 5.91671C10.7158 5.91671 11.3253 6.1683 11.8285 6.6715C12.3317 7.17469 12.5833 7.78421 12.5833 8.50004C12.5833 9.21587 12.3317 9.82539 11.8285 10.3286C11.3253 10.8318 10.7158 11.0834 9.99992 11.0834C9.28409 11.0834 8.67457 10.8318 8.17138 10.3286ZM9.99992 17.1667C9.0095 17.1667 8.07895 16.9824 7.20825 16.6138C6.33756 16.2452 5.57499 15.7337 4.92054 15.0794C4.26624 14.425 3.75478 13.6624 3.38617 12.7917C3.01756 11.921 2.83325 10.9905 2.83325 10C2.83325 8.99574 3.01756 8.06171 3.38617 7.19796C3.75478 6.33421 4.26624 5.57511 4.92054 4.92067C5.57499 4.26636 6.33756 3.7549 7.20825 3.38629C8.07895 3.01768 9.0095 2.83337 9.99992 2.83337C11.0042 2.83337 11.9383 3.01768 12.802 3.38629C13.6658 3.7549 14.4248 4.26636 15.0793 4.92067C15.7336 5.57511 16.2451 6.33421 16.6137 7.19796C16.9823 8.06171 17.1666 8.99574 17.1666 10C17.1666 10.9905 16.9823 11.921 16.6137 12.7917C16.2451 13.6624 15.7336 14.425 15.0793 15.0794C14.4248 15.7337 13.6658 16.2452 12.802 16.6138C11.9383 16.9824 11.0042 17.1667 9.99992 17.1667Z" fill="#1C1B1F"/>
</g>
</g>
</svg>
