<svg width="20" height="20" viewBox="0 0 20 20" fill="none" xmlns="http://www.w3.org/2000/svg">
<g id="attach_money">
<mask id="mask0_0_1" style="mask-type:alpha" maskUnits="userSpaceOnUse" x="-1" y="-1" width="22" height="22">
<rect id="Bounding box" width="20" height="20" fill="#D9D9D9" stroke="#1E1E1E"/>
</mask>
<g mask="url(#mask0_0_1)">
<path id="attach_money_2" d="M9.97917 16.4583C9.92361 16.4583 9.87153 16.434 9.82292 16.3854C9.77431 16.3368 9.75 16.2708 9.75 16.1875V14.9166C9.125 14.8333 8.57986 14.625 8.11458 14.2916C7.64931 13.9583 7.30556 13.5625 7.08333 13.1041C7.05556 13.0347 7.05556 12.9618 7.08333 12.8854C7.11111 12.809 7.15278 12.7638 7.20833 12.75C7.29167 12.7361 7.375 12.7291 7.45833 12.7291C7.54167 12.7291 7.59722 12.7569 7.625 12.8125C7.875 13.3125 8.19444 13.7048 8.58333 13.9895C8.97222 14.2743 9.43056 14.4166 9.95833 14.4166C10.5694 14.4166 11.1389 14.2326 11.6667 13.8645C12.1944 13.4965 12.4583 13 12.4583 12.375C12.4583 11.8194 12.2569 11.3611 11.8542 11C11.4514 10.6388 10.8958 10.3333 10.1875 10.0833C9.15972 9.70829 8.41319 9.34371 7.94792 8.98954C7.48264 8.63538 7.25 8.11107 7.25 7.41663C7.25 6.90274 7.48958 6.40968 7.96875 5.93746C8.44792 5.46524 9.04167 5.18746 9.75 5.10413V3.81246C9.75 3.72913 9.77083 3.66315 9.8125 3.61454C9.85417 3.56593 9.90278 3.54163 9.95833 3.54163C10.0139 3.54163 10.0625 3.56593 10.1042 3.61454C10.1458 3.66315 10.1667 3.72913 10.1667 3.81246V5.10413C10.5833 5.1319 10.9757 5.22565 11.3438 5.38538C11.7118 5.5451 12.0278 5.80551 12.2917 6.16663C12.3333 6.24996 12.3542 6.3194 12.3542 6.37496C12.3542 6.43052 12.3333 6.47218 12.2917 6.49996C12.2222 6.52774 12.1458 6.53815 12.0625 6.53121C11.9792 6.52427 11.9097 6.48607 11.8542 6.41663C11.6597 6.15274 11.4062 5.94093 11.0938 5.78121C10.7812 5.62149 10.4236 5.54163 10.0208 5.54163C9.49306 5.54163 8.98958 5.71176 8.51042 6.05204C8.03125 6.39232 7.79167 6.83329 7.79167 7.37496C7.79167 7.80551 7.94792 8.1944 8.26042 8.54163C8.57292 8.88885 9.22917 9.24996 10.2292 9.62496C11.2569 9.99996 11.9757 10.3715 12.3854 10.7395C12.7951 11.1076 13 11.6666 13 12.4166C13 12.9722 12.7257 13.5173 12.1771 14.052C11.6285 14.5868 10.9583 14.8819 10.1667 14.9375V16.1875C10.1667 16.2708 10.1458 16.3368 10.1042 16.3854C10.0625 16.434 10.0208 16.4583 9.97917 16.4583Z" fill="#1C1B1F" stroke="#1E1E1E"/>
</g>
</g>
</svg>
