<svg width="20" height="20" viewBox="0 0 20 20" fill="none" xmlns="http://www.w3.org/2000/svg">
<g id="hail">
<mask id="mask0_0_1" style="mask-type:alpha" maskUnits="userSpaceOnUse" x="-1" y="-1" width="22" height="22">
<rect id="Bounding box" width="20" height="20" fill="#1C1B1F" stroke="black"/>
</mask>
<g mask="url(#mask0_0_1)">
<path id="hail_2" d="M4.95844 16.6564V14.8435C4.95844 14.6798 5.01039 14.5468 5.11428 14.4448C5.21803 14.3427 5.34664 14.2916 5.50011 14.2916H5.33344C5.48691 14.2916 5.61553 14.3427 5.71927 14.4448C5.82316 14.5468 5.87511 14.6798 5.87511 14.8435V16.6564C5.87511 16.8202 5.82316 16.9531 5.71927 17.0552C5.61553 17.1573 5.48691 17.2083 5.33344 17.2083H5.50011C5.34664 17.2083 5.21803 17.1573 5.11428 17.0552C5.01039 16.9531 4.95844 16.8202 4.95844 16.6564ZM8.37511 16.9989V7.45829C7.56955 7.79163 6.86469 8.22913 6.26053 8.77079C5.65636 9.31246 5.25705 10.0694 5.06261 11.0416C5.05191 11.1294 5.02046 11.193 4.96823 11.2325C4.91601 11.2719 4.85726 11.2916 4.79198 11.2916C4.7224 11.2916 4.67372 11.2609 4.64594 11.1993C4.61816 11.1378 4.61122 11.0713 4.62511 11C4.81955 9.91663 5.31955 9.01385 6.12511 8.29163C6.93066 7.5694 7.87511 7.20829 8.95844 7.20829H10.5001C11.639 7.20829 12.6286 6.99301 13.4689 6.56246C14.3091 6.1319 14.8196 5.37496 15.0001 4.29163C15.014 4.24996 15.049 4.19788 15.1051 4.13538C15.1611 4.07288 15.2132 4.04163 15.2614 4.04163C15.3094 4.04163 15.3543 4.06628 15.3959 4.11558C15.4376 4.16503 15.4515 4.21676 15.4376 4.27079C15.3265 5.31246 14.9133 6.11454 14.198 6.67704C13.4827 7.23954 12.6251 7.5694 11.6251 7.66663V17.0045C11.6251 17.0563 11.6055 17.1033 11.5664 17.1454C11.5271 17.1873 11.4784 17.2083 11.4205 17.2083C11.3625 17.2083 11.3126 17.1883 11.2709 17.1483C11.2293 17.1084 11.2084 17.059 11.2084 17V12.3333H8.79178V17C8.79178 17.059 8.77219 17.1084 8.73303 17.1483C8.69372 17.1883 8.64511 17.2083 8.58719 17.2083C8.52914 17.2083 8.47928 17.1882 8.43761 17.1481C8.39594 17.1079 8.37511 17.0582 8.37511 16.9989ZM9.9949 5.24996C9.5956 5.24996 9.26053 5.11281 8.98969 4.8385C8.71886 4.5642 8.58344 4.22739 8.58344 3.82808C8.58344 3.42878 8.72059 3.09371 8.9949 2.82288C9.26921 2.55204 9.60601 2.41663 10.0053 2.41663C10.4046 2.41663 10.7397 2.55378 11.0105 2.82808C11.2814 3.10239 11.4168 3.4392 11.4168 3.8385C11.4168 4.23781 11.2796 4.57288 11.0053 4.84371C10.731 5.11454 10.3942 5.24996 9.9949 5.24996Z" fill="#1C1B1F" stroke="black"/>
</g>
</g>
</svg>
