<svg width="20" height="20" viewBox="0 0 20 20" fill="none" xmlns="http://www.w3.org/2000/svg">
<g id="money_off">
<mask id="mask0_0_1" style="mask-type:alpha" maskUnits="userSpaceOnUse" x="-1" y="-1" width="22" height="22">
<rect id="Bounding box" width="20" height="20" fill="#D9D9D9" stroke="#1E1E1E"/>
</mask>
<g mask="url(#mask0_0_1)">
<path id="money_off_2" d="M9.79156 5.60421V4.66671C9.79156 4.61115 9.81239 4.56254 9.85406 4.52087C9.89572 4.47921 9.94433 4.45837 9.99989 4.45837C10.0554 4.45837 10.1041 4.47921 10.1457 4.52087C10.1874 4.56254 10.2082 4.61115 10.2082 4.66671V5.62504C10.6388 5.62504 11.0207 5.7431 11.3541 5.97921C11.6874 6.21532 11.9443 6.52087 12.1249 6.89587C12.1527 6.93754 12.1561 6.98962 12.1353 7.05212C12.1145 7.11462 12.0832 7.15976 12.0416 7.18754C11.9999 7.21532 11.9443 7.21532 11.8749 7.18754C11.8054 7.15976 11.7568 7.12504 11.7291 7.08337C11.5624 6.76393 11.3263 6.51393 11.0207 6.33337C10.7152 6.15282 10.3957 6.06254 10.0624 6.06254C9.81239 6.06254 9.56586 6.10421 9.32281 6.18754C9.07975 6.27087 8.85406 6.38893 8.64572 6.54171C8.60406 6.59726 8.55197 6.62157 8.48947 6.61462C8.42697 6.60768 8.36794 6.58337 8.31239 6.54171C8.25683 6.50004 8.23253 6.44796 8.23947 6.38546C8.24642 6.32296 8.27072 6.26393 8.31239 6.20837C8.52072 6.04171 8.74642 5.90629 8.98947 5.80212C9.23253 5.69796 9.49989 5.63199 9.79156 5.60421ZM15.3541 15.9375L12.4999 13.1042C12.3054 13.4237 12.0034 13.7118 11.5936 13.9688C11.1839 14.2257 10.7221 14.3612 10.2082 14.375V15.2917C10.2082 15.3473 10.1874 15.3959 10.1457 15.4375C10.1041 15.4792 10.0554 15.5 9.99989 15.5C9.94433 15.5 9.89572 15.4792 9.85406 15.4375C9.81239 15.3959 9.79156 15.3473 9.79156 15.2917V14.3334C9.19433 14.2362 8.72211 14.0174 8.37489 13.6771C8.02767 13.3368 7.74294 12.8612 7.52072 12.25C7.49294 12.1945 7.50336 12.1389 7.55197 12.0834C7.60058 12.0278 7.65961 11.9931 7.72906 11.9792C7.77072 11.9653 7.81933 11.9827 7.87489 12.0313C7.93044 12.0799 7.96517 12.132 7.97906 12.1875C8.18739 12.7153 8.47211 13.1285 8.83322 13.4271C9.19433 13.7257 9.63183 13.875 10.1457 13.875C10.5763 13.875 10.9686 13.7709 11.3228 13.5625C11.677 13.3542 11.9513 13.0903 12.1457 12.7709L4.02072 4.62504C3.96517 4.56949 3.93392 4.52087 3.92697 4.47921C3.92003 4.43754 3.95128 4.38199 4.02072 4.31254C4.09017 4.2431 4.14225 4.20837 4.17697 4.20837C4.21169 4.20837 4.26378 4.2431 4.33322 4.31254L15.6666 15.6459C15.7221 15.7014 15.7534 15.7466 15.7603 15.7813C15.7673 15.816 15.736 15.8681 15.6666 15.9375C15.5971 16.007 15.545 16.0417 15.5103 16.0417C15.4756 16.0417 15.4235 16.007 15.3541 15.9375Z" fill="#1C1B1F" stroke="#1E1E1E"/>
</g>
</g>
</svg>
