<svg width="20" height="20" viewBox="0 0 20 20" fill="none" xmlns="http://www.w3.org/2000/svg">
<g id="add_home">
<mask id="mask0_0_1" style="mask-type:alpha" maskUnits="userSpaceOnUse" x="0" y="0" width="20" height="20">
<rect id="Bounding box" width="20" height="20" fill="#D9D9D9"/>
</mask>
<g mask="url(#mask0_0_1)">
<path id="add_home_2" d="M14.6249 13.3749V14.4999C14.6249 14.5999 14.6624 14.6874 14.7374 14.7624C14.8124 14.8374 14.8999 14.8749 14.9999 14.8749C15.0999 14.8749 15.1874 14.8374 15.2624 14.7624C15.3374 14.6874 15.3749 14.5999 15.3749 14.4999V13.3749H16.4999C16.5999 13.3749 16.6874 13.3402 16.7624 13.2708C16.8374 13.2013 16.8749 13.111 16.8749 12.9999C16.8749 12.8888 16.8374 12.7985 16.7624 12.7291C16.6874 12.6596 16.5999 12.6249 16.4999 12.6249H15.3749V11.4999C15.3749 11.3999 15.3374 11.3124 15.2624 11.2374C15.1874 11.1624 15.0999 11.1249 14.9999 11.1249C14.8999 11.1249 14.8124 11.1624 14.7374 11.2374C14.6624 11.3124 14.6249 11.3999 14.6249 11.4999V12.6249H13.4999C13.3999 12.6249 13.3124 12.6596 13.2374 12.7291C13.1624 12.7985 13.1249 12.8888 13.1249 12.9999C13.1249 13.111 13.1624 13.2013 13.2374 13.2708C13.3124 13.3402 13.3999 13.3749 13.4999 13.3749H14.6249ZM12.927 15.068C12.3645 14.5025 12.0833 13.8115 12.0833 12.9951C12.0833 12.1789 12.3661 11.4895 12.9318 10.927C13.4973 10.3645 14.1883 10.0833 15.0047 10.0833C15.821 10.0833 16.5103 10.3661 17.0728 10.9318C17.6353 11.4973 17.9166 12.1883 17.9166 13.0047C17.9166 13.821 17.6337 14.5103 17.068 15.0728C16.5025 15.6353 15.8115 15.9166 14.9951 15.9166C14.1789 15.9166 13.4895 15.6337 12.927 15.068ZM5.08325 12.8333V6.58325C5.08325 6.4152 5.12061 6.25603 5.19534 6.10575C5.26992 5.95534 5.37839 5.82284 5.52075 5.70825L9.35409 2.79159C9.55797 2.6527 9.77214 2.58325 9.99659 2.58325C10.221 2.58325 10.4374 2.6527 10.6458 2.79159L14.4791 5.70825C14.6214 5.82325 14.73 5.95631 14.8047 6.10742C14.8793 6.25839 14.9166 6.41832 14.9166 6.58721V7.27075C14.9166 7.36797 14.8853 7.46172 14.8228 7.552C14.7603 7.64228 14.6735 7.68047 14.5624 7.66659C13.993 7.72214 13.4062 7.89922 12.802 8.19784C12.1978 8.49645 11.6874 8.85409 11.2708 9.27075C10.7291 9.81242 10.3298 10.4339 10.0728 11.1353C9.81589 11.8367 9.70825 12.5624 9.74992 13.3124C9.76381 13.493 9.71561 13.6388 9.60534 13.7499C9.49506 13.861 9.35624 13.9166 9.18888 13.9166H6.16659C5.86867 13.9166 5.6136 13.8105 5.40138 13.5985C5.18929 13.3862 5.08325 13.1312 5.08325 12.8333Z" fill="#1C1B1F"/>
</g>
</g>
</svg>
