<svg width="20" height="20" viewBox="0 0 20 20" fill="none" xmlns="http://www.w3.org/2000/svg">
<g id="how_to_vote">
<mask id="mask0_0_1" style="mask-type:alpha" maskUnits="userSpaceOnUse" x="-1" y="-1" width="22" height="22">
<rect id="Bounding box" width="20" height="20" fill="#D9D9D9" stroke="black"/>
</mask>
<g mask="url(#mask0_0_1)">
<path id="how_to_vote_2" d="M4.91659 17.1667C4.59714 17.1667 4.33672 17.0661 4.13534 16.8647C3.93395 16.6633 3.83325 16.4029 3.83325 16.0834V14.4584C3.83325 14.3056 3.85756 14.1737 3.90617 14.0626C3.95478 13.9515 4.0277 13.8473 4.12492 13.7501L5.89575 11.7501C5.93742 11.7084 5.98603 11.6876 6.04159 11.6876C6.09714 11.6876 6.1527 11.7154 6.20825 11.7709C6.24992 11.8126 6.26728 11.8508 6.26034 11.8855C6.25339 11.9202 6.23603 11.9654 6.20825 12.0209L4.60409 13.8334H15.3958L13.5624 11.7709C13.5346 11.7154 13.5208 11.6633 13.5208 11.6147C13.5208 11.5661 13.5416 11.5209 13.5833 11.4792C13.6388 11.4237 13.6874 11.3994 13.7291 11.4063C13.7708 11.4133 13.8194 11.4445 13.8749 11.5001L15.8749 13.7501C15.9583 13.8473 16.0277 13.9549 16.0833 14.073C16.1388 14.1911 16.1666 14.3195 16.1666 14.4584V16.0834C16.1666 16.4029 16.0659 16.6633 15.8645 16.8647C15.6631 17.0661 15.4027 17.1667 15.0833 17.1667H4.91659ZM9.41659 11.1876L7.14575 8.91675C7.02075 8.79175 6.96172 8.6598 6.96867 8.52092C6.97561 8.38203 7.04159 8.25008 7.16659 8.12508L10.8124 4.47925C10.9374 4.35425 11.0659 4.29175 11.1978 4.29175C11.3298 4.29175 11.4583 4.35425 11.5833 4.47925L13.8333 6.77091C13.9583 6.89591 14.0173 7.02786 14.0103 7.16675C14.0034 7.30564 13.9374 7.43758 13.8124 7.56258L10.2083 11.1667C10.0833 11.2917 9.95131 11.3577 9.81242 11.3647C9.67353 11.3716 9.54159 11.3126 9.41659 11.1876ZM13.1458 7.64591C13.2569 7.5348 13.3124 7.37508 13.3124 7.16675C13.3124 6.95841 13.2569 6.79869 13.1458 6.68758L11.6874 5.18758C11.5763 5.07647 11.4166 5.02091 11.2083 5.02091C10.9999 5.02091 10.8402 5.07647 10.7291 5.18758L7.83325 8.08341C7.72214 8.19453 7.66659 8.35425 7.66659 8.56258C7.66659 8.77092 7.72214 8.93064 7.83325 9.04175L9.29159 10.5417C9.4027 10.6529 9.56242 10.7084 9.77075 10.7084C9.97909 10.7084 10.1388 10.6529 10.2499 10.5417L13.1458 7.64591Z" fill="#1C1B1F" stroke="black"/>
</g>
</g>
</svg>
