<svg width="20" height="20" viewBox="0 0 20 20" fill="none" xmlns="http://www.w3.org/2000/svg">
<g id="markdown_paste">
<mask id="mask0_0_1" style="mask-type:alpha" maskUnits="userSpaceOnUse" x="-1" y="-1" width="22" height="22">
<rect id="Bounding box" width="20" height="20" fill="#1C1B1F" stroke="black"/>
</mask>
<g mask="url(#mask0_0_1)">
<path id="markdown_paste_2" d="M11.4791 15.8567C11.4374 15.8168 11.4166 15.7674 11.4166 15.7083V12.125C11.4166 11.9646 11.4737 11.8273 11.5878 11.7131C11.7021 11.5988 11.8395 11.5417 11.9999 11.5417H15.3278C15.4953 11.5417 15.6353 11.5988 15.7478 11.7131C15.8603 11.8273 15.9166 11.9646 15.9166 12.125V15.7083C15.9166 15.7674 15.897 15.8168 15.8578 15.8567C15.8185 15.8967 15.7699 15.9167 15.712 15.9167C15.6539 15.9167 15.6041 15.8967 15.5624 15.8567C15.5208 15.8168 15.4999 15.7674 15.4999 15.7083V12.4583C15.4999 12.3194 15.4513 12.2014 15.3541 12.1042C15.2569 12.0069 15.1388 11.9583 14.9999 11.9583H13.8749V14.2083C13.8749 14.2674 13.8553 14.3168 13.8162 14.3567C13.7769 14.3967 13.7283 14.4167 13.6703 14.4167C13.6123 14.4167 13.5624 14.3967 13.5208 14.3567C13.4791 14.3168 13.4583 14.2674 13.4583 14.2083V11.9583H12.3333C12.1944 11.9583 12.0763 12.0069 11.9791 12.1042C11.8819 12.2014 11.8333 12.3194 11.8333 12.4583V15.7083C11.8333 15.7674 11.8137 15.8168 11.7745 15.8567C11.7352 15.8967 11.6866 15.9167 11.6287 15.9167C11.5706 15.9167 11.5208 15.8967 11.4791 15.8567ZM5.16659 15.9167C4.86867 15.9167 4.6136 15.8106 4.40138 15.5985C4.18929 15.3863 4.08325 15.1313 4.08325 14.8333V5.16667C4.08325 4.86875 4.18929 4.61375 4.40138 4.40167C4.6136 4.18945 4.86867 4.08333 5.16659 4.08333H9.22909C9.24297 3.86111 9.31242 3.66667 9.43742 3.5C9.56242 3.33333 9.74992 3.25 9.99992 3.25C10.2221 3.25 10.3992 3.33333 10.5312 3.5C10.6631 3.66667 10.736 3.86111 10.7499 4.08333H14.8333C15.1312 4.08333 15.3862 4.18945 15.5983 4.40167C15.8105 4.61375 15.9166 4.86875 15.9166 5.16667V9.41667C15.9166 9.47569 15.897 9.52514 15.8578 9.565C15.8185 9.605 15.7699 9.625 15.712 9.625C15.6539 9.625 15.6041 9.605 15.5624 9.565C15.5208 9.52514 15.4999 9.47569 15.4999 9.41667V5.16667C15.4999 5 15.4305 4.84722 15.2916 4.70833C15.1527 4.56944 14.9999 4.5 14.8333 4.5H12.9166V5.625C12.9166 5.77847 12.8655 5.90715 12.7633 6.01104C12.661 6.11479 12.5344 6.16667 12.3833 6.16667H7.61617C7.46506 6.16667 7.33846 6.11479 7.23638 6.01104C7.13429 5.90715 7.08325 5.77847 7.08325 5.625V4.5H5.16659C4.99992 4.5 4.84714 4.56944 4.70825 4.70833C4.56936 4.84722 4.49992 5 4.49992 5.16667V14.8333C4.49992 15 4.56936 15.1528 4.70825 15.2917C4.84714 15.4306 4.99992 15.5 5.16659 15.5H9.29159C9.35061 15.5 9.40013 15.5196 9.44013 15.5588C9.47999 15.5981 9.49992 15.6467 9.49992 15.7046C9.49992 15.7626 9.47999 15.8125 9.44013 15.8542C9.40013 15.8958 9.35061 15.9167 9.29159 15.9167H5.16659ZM10.3853 4.59458C10.4895 4.49083 10.5416 4.36236 10.5416 4.20917C10.5416 4.05583 10.4898 3.92708 10.3862 3.82292C10.2824 3.71875 10.1539 3.66667 10.0008 3.66667C9.84742 3.66667 9.71867 3.71847 9.6145 3.82208C9.51034 3.92583 9.45825 4.05431 9.45825 4.2075C9.45825 4.36083 9.51006 4.48958 9.61367 4.59375C9.71742 4.69792 9.84589 4.75 9.99909 4.75C10.1524 4.75 10.2812 4.69819 10.3853 4.59458Z" fill="#1C1B1F" stroke="black"/>
</g>
</g>
</svg>
