<svg width="20" height="20" viewBox="0 0 20 20" fill="none" xmlns="http://www.w3.org/2000/svg">
<g id="folder_check">
<mask id="mask0_0_1" style="mask-type:alpha" maskUnits="userSpaceOnUse" x="0" y="0" width="20" height="20">
<rect id="Bounding box" width="20" height="20" fill="#D9D9D9"/>
</mask>
<g mask="url(#mask0_0_1)">
<path id="folder_check_2" d="M9.12492 12.2708L7.85409 11.0416C7.81367 10.9999 7.7654 10.9756 7.70929 10.9687C7.65304 10.9617 7.59714 10.986 7.54159 11.0416C7.49992 11.0833 7.47909 11.1296 7.47909 11.1805C7.47909 11.2314 7.49992 11.2753 7.54159 11.3124L8.72909 12.4999C8.83561 12.611 8.9629 12.6666 9.11096 12.6666C9.25915 12.6666 9.38756 12.6123 9.49617 12.5037L12.4412 9.53784C12.4803 9.49867 12.4999 9.45478 12.4999 9.40617C12.4999 9.35756 12.4791 9.31242 12.4374 9.27075C12.3958 9.22909 12.3494 9.20825 12.2985 9.20825C12.2476 9.20825 12.2037 9.22909 12.1666 9.27075L9.12492 12.2708ZM4.16659 14.9166C3.86103 14.9166 3.60409 14.8124 3.39575 14.6041C3.18742 14.3958 3.08325 14.1388 3.08325 13.8333V6.16659C3.08325 5.85131 3.18742 5.59193 3.39575 5.38846C3.60409 5.18499 3.86103 5.08325 4.16659 5.08325H7.09659C7.24034 5.08325 7.38172 5.11103 7.52075 5.16659C7.65964 5.22214 7.78464 5.30547 7.89575 5.41659L9.56242 7.08325H15.8333C16.1485 7.08325 16.4079 7.18499 16.6114 7.38846C16.8148 7.59193 16.9166 7.85131 16.9166 8.16659V13.8333C16.9166 14.1388 16.8148 14.3958 16.6114 14.6041C16.4079 14.8124 16.1485 14.9166 15.8333 14.9166H4.16659Z" fill="#1C1B1F"/>
</g>
</g>
</svg>
