<svg width="69" height="45" viewBox="0 0 69 45" fill="none" xmlns="http://www.w3.org/2000/svg">
<g id="logo declara ir">
<g id="Group 33">
<path id="Vector" d="M48.3952 12.6969C48.381 12.7411 48.3472 12.7826 48.3304 12.8267C43.7762 10.0793 39.0241 7.63931 34.0904 5.63468C29.1683 7.70873 24.4403 10.2207 19.7855 12.8267C19.6356 13.0466 19.7738 12.8883 19.7855 12.8916C19.8244 12.9019 19.8556 12.9915 19.901 13.0187C29.4959 18.6979 38.4843 25.4805 47.1568 32.463L34.0819 45C32.739 43.8718 31.5349 42.5808 30.2647 41.3703C24.5927 35.963 18.8487 30.6264 12.9399 25.4786L15.8599 19.7021L19.5915 12.9571L14.083 16.1736L7.10378 20.5909L0 15.3244C6.30323 11.5454 12.7803 8.0318 19.5091 5.0573L23.1298 5.03913L27.0223 5.16888L33.8633 5.6256C33.9048 5.45822 33.7115 5.45303 33.6012 5.40308C32.5476 4.92431 31.3377 4.49354 30.2465 4.08548C28.783 3.53858 27.3019 3.03256 25.8182 2.5447C27.5166 1.93293 29.2299 1.33414 30.9589 0.808006C31.7756 0.559536 33.559 -0.0937522 34.3207 0.0113448C34.9435 0.0969794 35.8712 0.429787 36.5076 0.613382C40.8951 1.87584 45.1872 3.58594 49.3684 5.39854L49.4339 5.72097C49.0479 7.87091 48.9026 10.1169 48.5068 12.2584C48.4822 12.3933 48.4374 12.5678 48.3946 12.6976L48.3952 12.6969Z" fill="#013772"/>
<path id="Vector_2" d="M48.4602 12.8267C50.2228 11.9126 51.9323 10.8844 53.7124 10.0021C54.3047 9.70819 55.6262 8.97964 56.179 8.83432C56.2594 8.81291 56.3139 8.7967 56.4008 8.80513C56.6013 8.82524 57.662 9.41171 57.9332 9.54924C61.4092 11.3171 64.7742 13.3217 68.1166 15.325C64.8994 17.5626 61.7718 19.9415 58.7441 22.4301C57.2202 23.6828 55.754 25.016 54.2152 26.2422C47.598 24.7053 40.9198 23.3812 34.1877 22.4282L34.322 22.2063C38.8529 18.9931 43.409 15.7928 48.2234 13.009C48.3097 12.9591 48.431 12.9889 48.3947 12.8274H48.4595L48.4602 12.8267Z" fill="#013772"/>
<path id="Vector_3" d="M32.8116 8.23935C35.6304 8.03888 39.5871 8.64741 41.4866 10.944C42.5337 12.2103 42.4896 13.8043 41.4516 15.0622C38.4784 18.6654 28.5649 18.7257 26.1554 14.5328C23.9082 10.6222 29.898 8.4463 32.8116 8.23935Z" fill="#013772"/>
</g>
</g>
</svg>
